<?xml version="1.0" standalone="no"?>
<!DOCTYPE svg PUBLIC "-//W3C//DTD SVG 20010904//EN"
 "http://www.w3.org/TR/2001/REC-SVG-20010904/DTD/svg10.dtd">
<svg version="1.0" xmlns="http://www.w3.org/2000/svg"
 width="512.000000pt" height="512.000000pt" viewBox="0 0 512.000000 512.000000"
 preserveAspectRatio="xMidYMid meet">
<metadata>
Created by potrace 1.14, written by Peter Selinger 2001-2017
</metadata>
<g transform="translate(0.000000,512.000000) scale(0.100000,-0.100000)"
fill="#000000" stroke="none">
<path d="M1092 4948 c-116 -13 -248 -60 -356 -127 -33 -21 -83 -44 -111 -50
-65 -16 -110 -51 -126 -98 -18 -54 -15 -275 6 -441 11 -82 53 -230 88 -306 39
-84 110 -194 167 -259 47 -54 69 -96 76 -150 7 -51 -9 -94 -61 -162 -42 -56
-129 -226 -169 -332 -15 -40 -31 -73 -36 -73 -5 0 -15 -3 -23 -6 -22 -8 -44
20 -62 81 -14 49 -21 58 -73 91 -72 47 -126 55 -165 24 -61 -48 -108 -180
-100 -279 10 -133 83 -264 212 -384 88 -81 92 -106 51 -282 -6 -27 -13 -57
-15 -66 -10 -50 -42 -269 -50 -349 -3 -30 -8 -68 -10 -85 -28 -196 -25 -783 5
-1135 23 -269 33 -310 121 -528 l13 -32 1713 0 c1622 0 1712 1 1717 18 6 21
24 148 31 222 3 30 10 87 15 125 5 39 12 90 15 115 3 25 7 54 9 65 2 11 9 52
16 90 29 167 84 327 153 449 45 80 84 131 182 240 185 207 341 438 455 679
140 293 166 617 75 933 -34 120 -22 155 67 200 104 53 167 136 172 226 7 136
-90 295 -202 332 -29 10 -98 17 -177 20 -71 2 -146 10 -165 17 -31 11 -87 44
-100 60 -3 3 -12 10 -21 15 -9 5 -45 35 -80 66 -35 31 -77 69 -94 83 -16 15
-75 56 -129 92 -55 36 -136 93 -181 126 -45 34 -100 76 -123 92 -23 17 -46 42
-51 57 -10 29 -9 40 10 121 41 173 -91 292 -246 223 -144 -63 -273 -64 -540
-3 -239 55 -525 67 -700 31 -11 -3 -40 -6 -65 -9 -126 -12 -168 -16 -205 -22
-104 -16 -170 7 -336 118 -202 135 -399 190 -597 167z m-202 -320 c0 -6 7 -19
15 -28 8 -9 17 -32 20 -51 5 -31 5 -32 -5 -9 -6 13 -18 33 -27 42 -9 10 -13
18 -10 18 4 0 2 12 -3 26 -7 16 -7 23 0 19 6 -3 10 -11 10 -17z m1645 -2477
c3 -5 2 -12 -3 -15 -5 -3 -9 1 -9 9 0 17 3 19 12 6z"/>
</g>
</svg>
